<svg xmlns="http://www.w3.org/2000/svg"  viewBox="0 0 50 50" width="50px" height="50px"><path d="M 5 4 C 3.34375 4 2 5.34375 2 7 C 2 8.65625 3.34375 10 5 10 C 5.25 10 5.496094 9.96875 5.734375 9.90625 L 8.015625 13.332031 C 7.769531 13.695313 7.5625 14.070313 7.476563 14.472656 C 7.476563 14.476563 7.480469 14.480469 7.484375 14.484375 C 7.179688 15.265625 7 16.109375 7 17 C 7 17.550781 7.449219 18 8 18 C 8.550781 18 9 17.550781 9 17 C 9 16.695313 9.03125 16.398438 9.085938 16.109375 C 10.054688 17.097656 11.027344 18.085938 12.011719 19.085938 C 12.015625 19.402344 12.03125 19.71875 12.074219 20.03125 C 12.109375 20.347656 12.167969 20.660156 12.234375 20.96875 C 12.234375 20.980469 12.234375 20.992188 12.238281 21 C 12.460938 22.027344 12.832031 23.019531 13.390625 23.964844 C 13.179688 24.398438 13 24.953125 13 25.5 C 13 27.597656 13.757813 29.488281 15 30.859375 L 15 33.40625 C 10.871094 36.871094 6.492188 40.222656 3 42 C 7.171875 42 11.25 41.144531 15.710938 38.738281 C 17.125 41.578125 20.300781 45 22 45 L 28 45 C 29.332031 45 31.804688 42.742188 33.425781 40.3125 C 34.453125 43.144531 37 45 37 45 L 37 41 C 37 40.707031 37.046875 40.40625 37.125 40.097656 C 40.511719 41.480469 43.726563 42 47 42 C 44.546875 40.75 41.640625 38.699219 38.703125 36.40625 C 39.378906 34.898438 40 33.152344 40 31 C 40 26.230469 38.066406 19.246094 38.015625 19.0625 C 38.992188 18.070313 39.953125 17.089844 40.917969 16.109375 C 40.96875 16.398438 41 16.695313 41 17 C 41 17.550781 41.449219 18 42 18 C 42.550781 18 43 17.550781 43 17 C 43 16.109375 42.820313 15.265625 42.515625 14.484375 C 42.519531 14.480469 42.523438 14.476563 42.527344 14.472656 C 42.4375 14.070313 42.230469 13.695313 41.984375 13.332031 L 44.265625 9.90625 C 44.503906 9.964844 44.753906 10 45 10 C 46.65625 10 48 8.65625 48 7 C 48 5.34375 46.65625 4 45 4 C 43.34375 4 42 5.34375 42 7 C 42 7.445313 42.101563 7.886719 42.296875 8.289063 L 39.589844 10.988281 C 39.207031 10.761719 38.792969 10.582031 38.367188 10.425781 C 38.355469 10.421875 38.277344 10.378906 38.277344 10.378906 C 38.277344 10.378906 38.269531 10.390625 38.265625 10.390625 C 37.554688 10.144531 36.796875 10 36 10 C 35.449219 10 35 10.449219 35 11 C 35 11.550781 35.449219 12 36 12 C 36.273438 12 36.539063 12.027344 36.800781 12.070313 C 36.507813 12.40625 36.171875 12.785156 35.792969 13.210938 C 33.503906 10.574219 29.773438 9 26.199219 9 L 23.800781 9 C 20.226563 9 16.496094 10.574219 14.207031 13.210938 C 13.828125 12.785156 13.492188 12.40625 13.199219 12.070313 C 13.460938 12.027344 13.726563 12 14 12 C 14.550781 12 15 11.550781 15 11 C 15 10.449219 14.550781 10 14 10 C 13.207031 10 12.449219 10.144531 11.734375 10.390625 C 11.734375 10.390625 11.722656 10.378906 11.722656 10.378906 C 11.722656 10.378906 11.648438 10.421875 11.640625 10.425781 C 11.210938 10.578125 10.792969 10.757813 10.410156 10.988281 L 7.703125 8.289063 C 7.898438 7.886719 8 7.445313 8 7 C 8 5.34375 6.65625 4 5 4 Z M 23.800781 11 L 26.199219 11 C 29.1875 11 33.003906 12.46875 34.867188 15.253906 C 32.769531 14.125 29.578125 13 25 13 C 20.421875 13 17.230469 14.125 15.132813 15.253906 C 16.996094 12.46875 20.8125 11 23.800781 11 Z M 14.292969 21 L 35.707031 21 C 35.476563 21.828125 35.121094 22.632813 34.609375 23.394531 L 34.199219 24.003906 L 34.660156 24.578125 C 34.886719 24.855469 35 25.167969 35 25.5 C 35 25.8125 34.972656 26.113281 34.929688 26.410156 C 34.917969 26.488281 34.90625 26.566406 34.890625 26.640625 C 34.847656 26.890625 34.792969 27.128906 34.71875 27.363281 C 34.695313 27.445313 34.667969 27.527344 34.640625 27.609375 C 34.621094 27.660156 34.597656 27.710938 34.578125 27.761719 C 34.523438 27.90625 34.464844 28.046875 34.402344 28.183594 C 34.363281 28.261719 34.324219 28.335938 34.28125 28.414063 C 34.230469 28.507813 34.179688 28.601563 34.125 28.691406 C 34.097656 28.734375 34.074219 28.773438 34.046875 28.8125 C 34.003906 28.875 33.964844 28.941406 33.921875 29 C 33.828125 29.132813 33.730469 29.253906 33.628906 29.375 C 33.59375 29.414063 33.5625 29.457031 33.527344 29.496094 C 33.515625 29.507813 33.503906 29.519531 33.496094 29.53125 C 33.335938 29.703125 33.175781 29.863281 33 30.007813 C 32.378906 30.519531 31.65625 30.882813 30.84375 31.011719 L 30 31.144531 L 30 36 C 30 36.550781 29.550781 37 29 37 L 21 37 C 20.449219 37 20 36.550781 20 36 L 20 31.144531 L 19.15625 31.011719 C 18.34375 30.882813 17.621094 30.519531 17 30.007813 C 16.824219 29.863281 16.664063 29.703125 16.503906 29.53125 C 16.476563 29.5 16.445313 29.46875 16.417969 29.4375 C 16.285156 29.285156 16.164063 29.128906 16.046875 28.964844 C 15.988281 28.875 15.929688 28.78125 15.875 28.6875 C 15.789063 28.550781 15.707031 28.417969 15.636719 28.273438 C 15.53125 28.0625 15.4375 27.839844 15.359375 27.613281 C 15.34375 27.566406 15.320313 27.527344 15.308594 27.480469 C 15.109375 26.867188 15 26.199219 15 25.5 C 15 25.191406 15.222656 24.722656 15.339844 24.578125 L 15.800781 24.003906 L 15.390625 23.390625 C 14.878906 22.628906 14.523438 21.828125 14.292969 21 Z M 21.261719 23 C 19.789063 23 18.269531 23.046875 17.488281 23.824219 C 17.175781 24.132813 17.007813 24.527344 17.003906 24.957031 C 16.964844 26.296875 17.292969 27.332031 17.984375 28.046875 C 18.75 28.832031 19.730469 29 20.417969 29 L 21.3125 29 C 22.746094 29 24 27.710938 24 26.246094 L 24 25.660156 C 24 24.554688 23.21875 23 21.480469 23 Z M 28.738281 23 L 28.519531 23 C 26.78125 23 26 24.554688 26 25.660156 L 26 26.246094 C 26 27.710938 27.253906 29 28.6875 29 L 29.582031 29 C 30.269531 29 31.253906 28.832031 32.015625 28.046875 C 32.710938 27.332031 33.039063 26.289063 33 24.980469 C 32.996094 24.539063 32.828125 24.136719 32.511719 23.824219 C 31.730469 23.046875 30.222656 22.992188 28.738281 23 Z M 25 29 C 22.902344 29 22 32.457031 22 33.554688 C 22 34.25 22.304688 34.605469 22.5625 34.78125 C 23.148438 35.183594 23.773438 34.941406 24.230469 34.765625 C 24.484375 34.667969 24.777344 34.554688 25 34.554688 C 25.222656 34.554688 25.515625 34.667969 25.769531 34.765625 C 26.046875 34.871094 26.378906 35 26.730469 35 C 26.964844 35 27.203125 34.941406 27.4375 34.78125 C 27.695313 34.605469 28 34.25 28 33.554688 C 28 32.382813 26.96875 29 25 29 Z M 17 32.394531 C 17.320313 32.554688 17.652344 32.691406 18 32.796875 L 18 36 C 18 37.652344 19.347656 39 21 39 L 22 39 L 22 41 L 24 41 L 24 39 L 26 39 L 26 41 L 28 41 L 28 39 L 29 39 C 30.652344 39 32 37.652344 32 36 L 32 32.796875 C 32.347656 32.691406 32.679688 32.554688 33 32.394531 L 33 36.386719 C 33 38.394531 29.039063 42.746094 27.96875 43 L 22.050781 43.003906 C 21 42.777344 17 38.382813 17 36.386719 Z"/></svg>